<?xml version="1.0" encoding="utf-8"?>
<!-- Generator: Adobe Illustrator 26.0.1, SVG Export Plug-In . SVG Version: 6.00 Build 0)  -->
<svg version="1.1" id="Layer_1" xmlns="http://www.w3.org/2000/svg" xmlns:xlink="http://www.w3.org/1999/xlink" x="0px" y="0px"
	 viewBox="0 0 1200.2 566.83" style="enable-background:new 0 0 1200.2 566.83;" xml:space="preserve">
<style type="text/css">
	.st0{fill-rule:evenodd;clip-rule:evenodd;fill:url(#SVGID_1_);}
	.st1{fill-rule:evenodd;clip-rule:evenodd;fill:url(#SVGID_00000076581575880714922970000011731180022279850669_);}
	.st2{fill:url(#SVGID_00000142147904999379390350000002351616514291723192_);}
	.st3{fill:url(#SVGID_00000123418587608515235780000003616491054230652087_);}
	.st4{fill:url(#SVGID_00000066509699731052616460000008481895609572906941_);}
	.st5{fill:url(#SVGID_00000154396052973424678500000002934575353013942420_);}
	.st6{fill:url(#SVGID_00000096030307849911215400000011230861926203108502_);}
	.st7{fill:url(#SVGID_00000166651788188983738100000014475179471363121581_);}
	.st8{fill:url(#SVGID_00000081630857631999832090000015793239415596326314_);}
	.st9{fill:url(#SVGID_00000119117254671282250520000016943352585797842560_);}
	.st10{fill:url(#SVGID_00000134220108152483861810000017793241382883243919_);}
	.st11{fill:url(#SVGID_00000181084616769817553450000012302863367932390077_);}
	.st12{fill:url(#SVGID_00000178186674301396899810000012487434314036953734_);}
	.st13{fill:url(#SVGID_00000148631003235971119400000001446659244089921720_);}
	.st14{fill:url(#SVGID_00000050647203090226379100000003843596993653190567_);}
	.st15{fill:#00D5FF;}
	.st16{fill:url(#SVGID_00000170960587982226179360000007219343003773298863_);}
	.st17{fill:url(#SVGID_00000010306828984449922070000011920115156293026229_);}
</style>
<g>
	<g>
		<linearGradient id="SVGID_1_" gradientUnits="userSpaceOnUse" x1="0" y1="116.8892" x2="864.9841" y2="116.8892">
			<stop  offset="0" style="stop-color:#007BFF"/>
			<stop  offset="0.838" style="stop-color:#00A9FF"/>
		</linearGradient>
		<path class="st0" d="M810.52,233.44c-142.35-64.35-284.69-128.7-427.04-193.05C271.98,98.5,160.48,156.61,48.98,214.71L0,215.22
			C127.35,143.48,254.7,71.74,382.05,0l482.94,233.78C846.83,233.66,828.67,233.55,810.52,233.44z"/>
	</g>
	
		<linearGradient id="SVGID_00000145751154470886837770000015199580541278186636_" gradientUnits="userSpaceOnUse" x1="479.347" y1="326.3843" x2="479.387" y2="326.3843">
		<stop  offset="0" style="stop-color:#007BFF"/>
		<stop  offset="0.838" style="stop-color:#00A9FF"/>
	</linearGradient>
	<path style="fill-rule:evenodd;clip-rule:evenodd;fill:url(#SVGID_00000145751154470886837770000015199580541278186636_);" d="
		M479.39,328.53h-0.04v-4.3C479.36,325.68,479.38,327.11,479.39,328.53z"/>
	<g>
		
			<linearGradient id="SVGID_00000103256574706030340740000008010097602984535967_" gradientUnits="userSpaceOnUse" x1="521.9518" y1="317.36" x2="607.7837" y2="317.36">
			<stop  offset="0" style="stop-color:#007BFF"/>
			<stop  offset="0.2757" style="stop-color:#0080FF"/>
			<stop  offset="0.6243" style="stop-color:#0090FF"/>
			<stop  offset="1" style="stop-color:#00A9FF"/>
		</linearGradient>
		<path style="fill:url(#SVGID_00000103256574706030340740000008010097602984535967_);" d="M533.42,362.14h-11.47v-1.05v-2.81
			c0-2.81,0.04-6.2,0.12-10.18v-30.77l0.12-30.89c0-3.98,0.04-7.37,0.12-10.18v-2.81v-1.05c2.26,0,5.73,0.02,10.41,0.06
			c4.68,0.04,8.19,0.06,10.53,0.06c2.96-0.16,5.22-0.23,6.79-0.23c6.79,0,12.36,0.31,16.73,0.94c6.16,0.94,11.19,2.18,15.09,3.74
			c5.62,2.42,10.45,5.58,14.51,9.48c9.44,9.52,13.03,22.5,10.76,38.96c-1.64,11.86-7.29,20.98-16.96,27.38
			c-6.94,4.52-15.8,7.45-26.56,8.78c-4.76,0.54-9.13,0.82-13.1,0.82c-3.12,0.08-6.79,0.08-11,0c-2.5-0.08-4.17-0.12-5.03-0.12
			C534,362.26,533.65,362.22,533.42,362.14z M546.52,296.74v20.59c0,4.37-0.02,8.6-0.06,12.7c-0.04,4.09-0.06,6.84-0.06,8.25
			c7.18,0.31,11.86,0.35,14.04,0.12c7.33-1.01,12.56-2.57,15.68-4.68c3.9-2.65,6.16-6.51,6.79-11.58c0.62-4.76,0.51-8.85-0.35-12.29
			c-0.78-2.42-1.95-4.48-3.51-6.2c-3.35-3.35-8.66-5.5-15.91-6.44C558.06,296.43,552.53,296.27,546.52,296.74z"/>
		
			<linearGradient id="SVGID_00000008108547119471581650000011101236589703375015_" gradientUnits="userSpaceOnUse" x1="621.9865" y1="317.0522" x2="697.6857" y2="317.0522">
			<stop  offset="0" style="stop-color:#007BFF"/>
			<stop  offset="0.2757" style="stop-color:#0080FF"/>
			<stop  offset="0.6243" style="stop-color:#0090FF"/>
			<stop  offset="1" style="stop-color:#00A9FF"/>
		</linearGradient>
		<path style="fill:url(#SVGID_00000008108547119471581650000011101236589703375015_);" d="M632.98,272.64
			c1.33-0.08,2.22-0.16,2.69-0.23c8.03-0.39,14.43-0.43,19.19-0.12c10.3,0.47,18.6,2.38,24.92,5.73
			c9.98,5.3,15.05,13.53,15.21,24.69c0.16,10.45-3.71,18.64-11.58,24.57c-1.79,1.4-4.21,2.81-7.25,4.21l21.53,29.95l-30.42-0.47
			L651.7,336.4h-0.94h-4.68v25.16l-22.7,0.47l-1.4-89.15c4.84-0.16,8.42-0.23,10.76-0.23H632.98z M645.97,293.93v20.59
			c5.3,0,9.55-0.23,12.75-0.7c5.23-0.86,9.05-2.18,11.47-3.98c2.03-1.48,3-3.78,2.92-6.9c0-2.42-1.17-4.25-3.51-5.5
			c-3.2-1.79-8.5-2.92-15.91-3.39C652.06,293.97,649.48,293.93,645.97,293.93z"/>
		
			<linearGradient id="SVGID_00000143590514002133117150000009885394929662974105_" gradientUnits="userSpaceOnUse" x1="707.6301" y1="316.8633" x2="768.1193" y2="316.8633">
			<stop  offset="0" style="stop-color:#007BFF"/>
			<stop  offset="0.2757" style="stop-color:#0080FF"/>
			<stop  offset="0.6243" style="stop-color:#0090FF"/>
			<stop  offset="1" style="stop-color:#00A9FF"/>
		</linearGradient>
		<path style="fill:url(#SVGID_00000143590514002133117150000009885394929662974105_);" d="M726.93,272.05h4.91
			c4.05,0,10.1-0.02,18.14-0.06c8.03-0.04,14.08-0.06,18.13-0.06L768,296.15h-0.58c-0.16,0-0.37,0.02-0.64,0.06
			c-0.27,0.04-0.57,0.06-0.88,0.06h-5.5c-4.99,0-10.53,0.04-16.61,0.12h-11.82v8.77c2.03,0,4.25-0.02,6.67-0.06
			c2.42-0.04,5.03-0.06,7.84-0.06h14.62h4.8h1.4h0.47l0.12,24.34h-0.47h-1.4h-4.8h-14.74h-14.39v7.84c0.78,0,2.26,0.02,4.45,0.06
			c2.18,0.04,4.48,0.06,6.9,0.06c6.16,0,11.82,0.04,16.96,0.12h5.62h1.52h0.58l-0.23,24.34h-0.47h-1.64h-5.5
			c-5.15-0.08-10.8-0.12-16.97-0.12l-16.96-0.12H726h-18.13v-0.94v-2.92c-0.08-2.81-0.12-6.16-0.12-10.06v-30.77
			c-0.08-11.23-0.12-21.49-0.12-30.77v-10.18v-2.81v-1.05h11.93H726.93z"/>
		
			<linearGradient id="SVGID_00000029768410243752154070000007582997361798164391_" gradientUnits="userSpaceOnUse" x1="772.798" y1="317.0972" x2="859.8459" y2="317.0972">
			<stop  offset="0" style="stop-color:#007BFF"/>
			<stop  offset="0.2757" style="stop-color:#0080FF"/>
			<stop  offset="0.6243" style="stop-color:#0090FF"/>
			<stop  offset="1" style="stop-color:#00A9FF"/>
		</linearGradient>
		<path style="fill:url(#SVGID_00000029768410243752154070000007582997361798164391_);" d="M828.49,272.4
			c1.71,4.99,3.2,9.24,4.45,12.75c2.88,8.42,6.12,17.67,9.71,27.73c3.51,10.14,6.71,19.38,9.59,27.73c1.25,3.59,2.34,6.63,3.28,9.13
			l4.33,11.82l-25.74,0.12c-0.23-0.39-0.43-0.82-0.58-1.29c-0.23-0.7-0.51-1.56-0.82-2.57l-1.05-3.04l-14.04-0.12
			c-5.38,0-10.3-0.04-14.74-0.12h-2.57l-1.05,3.74c-0.31,1.09-0.58,1.99-0.82,2.69l-0.23,0.94l-25.39-0.58
			c1.48-4.21,2.3-6.59,2.46-7.14c0.16-0.7,0.39-1.6,0.7-2.69c0.78-2.57,1.71-5.69,2.81-9.36l8.19-28.55
			c3.04-10.37,5.81-19.89,8.31-28.55l3.74-12.64h0.58v-0.12L828.49,272.4z M823.46,331.37l-3.74-10.41l-5.26-15.21l-4.21,14.62
			l-3.16,10.76c2.11,0.08,5.65,0.12,10.65,0.12c0.94,0,2.03,0.02,3.28,0.06C822.25,331.35,823.07,331.37,823.46,331.37z"/>
		
			<linearGradient id="SVGID_00000164472067203565136820000006834582571206183838_" gradientUnits="userSpaceOnUse" x1="866.2805" y1="316.9219" x2="958.7101" y2="316.9219">
			<stop  offset="0" style="stop-color:#007BFF"/>
			<stop  offset="0.2757" style="stop-color:#0080FF"/>
			<stop  offset="0.6243" style="stop-color:#0090FF"/>
			<stop  offset="1" style="stop-color:#00A9FF"/>
		</linearGradient>
		<path style="fill:url(#SVGID_00000164472067203565136820000006834582571206183838_);" d="M889.91,272.29
			c0.08,0.08,0.19,0.35,0.35,0.82c0.31,0.55,0.7,1.29,1.17,2.22l3.98,7.96c3.67,7.33,7.68,15.41,12.05,24.22l5.15,10.53l5.03-10.41
			l11.82-24.34c1.48-3.12,2.77-5.77,3.86-7.96c0.47-0.94,0.82-1.71,1.05-2.34l0.47-0.7v-0.12l23.4-0.12v1.05v2.81v10.06
			c0.08,9.36,0.16,19.62,0.23,30.77c0.08,11.16,0.12,21.41,0.12,30.77c0.08,3.9,0.12,7.25,0.12,10.06v2.81v1.05l-23.4,0.12v-1.05
			v-2.81c0-2.81-0.04-6.16-0.12-10.06c0-8.97-0.04-16.46-0.12-22.46l-8.19,17.08c-1.48,3.12-2.77,5.77-3.86,7.96
			c-0.47,0.94-0.82,1.68-1.05,2.22l-0.47,0.82l-17.43,0.12c-0.08-0.08-0.16-0.23-0.23-0.47l-0.23-0.47
			c-0.31-0.62-0.66-1.36-1.05-2.22c-1.09-2.26-2.42-4.95-3.98-8.07l-8.66-17.2c0.08,6.24,0.12,13.85,0.12,22.81
			c0.08,3.9,0.12,7.25,0.12,10.06v2.81v1.05l-23.4,0.12v-1.05v-2.81c0-2.81-0.04-6.16-0.12-10.06l-0.12-30.77l-0.12-30.65
			c-0.08-3.98-0.12-7.37-0.12-10.18v-2.81v-1.05l23.4-0.12v0.12L889.91,272.29z"/>
		
			<linearGradient id="SVGID_00000015322555519553467860000001530329438250827454_" gradientUnits="userSpaceOnUse" x1="520.6652" y1="446.6797" x2="609.3513" y2="446.6797">
			<stop  offset="0" style="stop-color:#007BFF"/>
			<stop  offset="0.2757" style="stop-color:#0080FF"/>
			<stop  offset="0.6243" style="stop-color:#0090FF"/>
			<stop  offset="1" style="stop-color:#00A9FF"/>
		</linearGradient>
		<path style="fill:url(#SVGID_00000015322555519553467860000001530329438250827454_);" d="M583.26,434.05
			c-0.7-2.81-3.08-5.34-7.14-7.61c-3.2-1.71-7.88-2.22-14.04-1.52c-5.15,0.47-9.32,2.38-12.52,5.73c-3.67,3.82-5.5,9.28-5.5,16.38
			c0,6.01,1.48,10.88,4.45,14.62c2.34,2.97,5.85,5.11,10.53,6.44c6.08,1.56,11.52,1.37,16.32-0.58c4.8-1.95,8.64-5.34,11.52-10.18
			l22.46,0.94c-0.55,4.52-1.8,8.66-3.74,12.4c-1.95,3.74-4.31,6.81-7.08,9.18c-2.77,2.38-5.38,4.27-7.84,5.67s-4.97,2.57-7.55,3.51
			c-9.83,3.51-19.46,4.25-28.9,2.22c-9.67-2.03-17.63-6.86-23.87-14.51c-6.48-8.19-9.71-18.09-9.71-29.72
			c0-13.49,4.02-24.45,12.05-32.88c7.1-7.49,16.15-11.78,27.14-12.87c10.06-1.09,19.34,0.78,27.85,5.62
			c4.52,2.5,8.56,6.28,12.11,11.35c3.55,5.07,5.95,10.22,7.2,15.44L583.26,434.05z"/>
		
			<linearGradient id="SVGID_00000025419226226073267550000006961284208652296080_" gradientUnits="userSpaceOnUse" x1="617.3063" y1="446.0391" x2="667.383" y2="446.0391">
			<stop  offset="0" style="stop-color:#007BFF"/>
			<stop  offset="0.2757" style="stop-color:#0080FF"/>
			<stop  offset="0.6243" style="stop-color:#0090FF"/>
			<stop  offset="1" style="stop-color:#00A9FF"/>
		</linearGradient>
		<path style="fill:url(#SVGID_00000025419226226073267550000006961284208652296080_);" d="M641.64,401.29v1.05v2.81v10.06v30.65
			v21.29h3.74c5.46,0.08,10.49,0.12,15.09,0.12c1.95,0,3.59,0.04,4.91,0.12h1.4h0.58l-0.23,23.4h-0.47h-1.4
			c-1.4-0.08-3.08-0.12-5.03-0.12l-15.09-0.12l-15.09-0.12c-1.95,0-3.63-0.04-5.03-0.12h-1.4h-0.47h-5.73v-0.94v-2.81V476.4
			c-0.08-9.2-0.12-19.38-0.12-30.54v-30.65v-10.06v-2.81v-0.94L641.64,401.29z"/>
		
			<linearGradient id="SVGID_00000118381978501163142400000012301726512050768799_" gradientUnits="userSpaceOnUse" x1="677.3264" y1="445.8638" x2="737.8156" y2="445.8638">
			<stop  offset="0" style="stop-color:#007BFF"/>
			<stop  offset="0.2757" style="stop-color:#0080FF"/>
			<stop  offset="0.6243" style="stop-color:#0090FF"/>
			<stop  offset="1" style="stop-color:#00A9FF"/>
		</linearGradient>
		<path style="fill:url(#SVGID_00000118381978501163142400000012301726512050768799_);" d="M696.63,401.05h4.91
			c4.05,0,10.1-0.02,18.14-0.06c8.03-0.04,14.08-0.06,18.13-0.06l-0.12,24.22h-0.58c-0.16,0-0.37,0.02-0.64,0.06
			c-0.27,0.04-0.57,0.06-0.88,0.06h-5.5c-4.99,0-10.53,0.04-16.61,0.12h-11.82v8.77c2.03,0,4.25-0.02,6.67-0.06
			c2.42-0.04,5.03-0.06,7.84-0.06h14.62h4.8h1.4h0.47l0.12,24.34h-0.47h-1.4h-4.8h-14.74h-14.39v7.84c0.78,0,2.26,0.02,4.45,0.06
			c2.18,0.04,4.48,0.06,6.9,0.06c6.16,0,11.82,0.04,16.96,0.12h5.62h1.52h0.58l-0.23,24.34h-0.47h-1.64h-5.5
			c-5.15-0.08-10.8-0.12-16.97-0.12l-16.96-0.12h-0.35h-18.13v-0.94v-2.92c-0.08-2.81-0.12-6.16-0.12-10.06v-30.77
			c-0.08-11.23-0.12-21.49-0.12-30.77v-10.18v-2.81v-1.05h11.93H696.63z"/>
		
			<linearGradient id="SVGID_00000052809450517473388700000014609931329792252859_" gradientUnits="userSpaceOnUse" x1="742.4943" y1="446.0977" x2="829.5422" y2="446.0977">
			<stop  offset="0" style="stop-color:#007BFF"/>
			<stop  offset="0.2757" style="stop-color:#0080FF"/>
			<stop  offset="0.6243" style="stop-color:#0090FF"/>
			<stop  offset="1" style="stop-color:#00A9FF"/>
		</linearGradient>
		<path style="fill:url(#SVGID_00000052809450517473388700000014609931329792252859_);" d="M798.19,401.4
			c1.71,4.99,3.2,9.24,4.45,12.75c2.88,8.42,6.12,17.67,9.71,27.73c3.51,10.14,6.71,19.38,9.59,27.73c1.25,3.59,2.34,6.63,3.28,9.13
			l4.33,11.82l-25.74,0.12c-0.23-0.39-0.43-0.82-0.58-1.29c-0.23-0.7-0.51-1.56-0.82-2.57l-1.05-3.04l-14.04-0.12
			c-5.38,0-10.3-0.04-14.74-0.12h-2.57l-1.05,3.74c-0.31,1.09-0.58,1.99-0.82,2.69l-0.23,0.94l-25.39-0.58
			c1.48-4.21,2.3-6.59,2.46-7.14c0.16-0.7,0.39-1.6,0.7-2.69c0.78-2.57,1.71-5.69,2.81-9.36l8.19-28.55
			c3.04-10.37,5.81-19.89,8.31-28.55l3.74-12.64h0.58v-0.12L798.19,401.4z M793.16,460.37l-3.74-10.41l-5.26-15.21l-4.21,14.62
			l-3.16,10.76c2.11,0.08,5.65,0.12,10.65,0.12c0.94,0,2.03,0.02,3.28,0.06C791.95,460.35,792.76,460.37,793.16,460.37z"/>
		
			<linearGradient id="SVGID_00000082357106707074773230000014375116413912607645_" gradientUnits="userSpaceOnUse" x1="838.2004" y1="445.9224" x2="908.049" y2="445.9224">
			<stop  offset="0" style="stop-color:#007BFF"/>
			<stop  offset="0.2757" style="stop-color:#0080FF"/>
			<stop  offset="0.6243" style="stop-color:#0090FF"/>
			<stop  offset="1" style="stop-color:#00A9FF"/>
		</linearGradient>
		<path style="fill:url(#SVGID_00000082357106707074773230000014375116413912607645_);" d="M861.72,401.17l0.47,0.94
			c0.39,0.62,0.86,1.44,1.4,2.46c1.33,2.42,2.96,5.34,4.91,8.78l14.86,26.91l0.82,1.29c-0.08-4.29-0.14-8.73-0.18-13.34
			c-0.04-4.6-0.06-8.89-0.06-12.87c-0.08-3.98-0.12-7.37-0.12-10.18v-2.81v-0.94l23.4-0.23v0.94v2.81c0,2.81,0.04,6.2,0.12,10.18
			c0.08,9.28,0.16,19.5,0.23,30.65c0.16,11.16,0.27,21.37,0.35,30.65c0.08,3.98,0.12,7.37,0.12,10.18v2.81v0.94l-23.4,0.23v-0.12
			c-0.08,0-0.16-0.06-0.23-0.18c-0.08-0.12-0.16-0.29-0.23-0.53c-0.31-0.7-0.78-1.52-1.4-2.46c-1.33-2.5-2.96-5.46-4.91-8.89
			L863,451.6l-1.17-2.11c0,9.52,0.04,18.56,0.12,27.14v10.06v2.92v0.94l-23.4,0.12v-1.05v-2.81v-10.06
			c-0.08-9.36-0.12-19.62-0.12-30.77c-0.08-11.15-0.12-21.41-0.12-30.77c0-3.9-0.04-7.25-0.12-10.06v-2.81v-1.05l23.4-0.12v0.12
			L861.72,401.17z"/>
		
			<linearGradient id="SVGID_00000167393254528918510160000002505089267474150845_" gradientUnits="userSpaceOnUse" x1="920.3332" y1="445.981" x2="943.8498" y2="445.981">
			<stop  offset="0" style="stop-color:#007BFF"/>
			<stop  offset="0.2757" style="stop-color:#0080FF"/>
			<stop  offset="0.6243" style="stop-color:#0090FF"/>
			<stop  offset="1" style="stop-color:#00A9FF"/>
		</linearGradient>
		<path style="fill:url(#SVGID_00000167393254528918510160000002505089267474150845_);" d="M943.85,401.29v1.05v2.81v10.18v30.65
			c0,11.16-0.04,21.41-0.12,30.77v10.06v2.92v0.94h-23.4v-1.05v-2.81v-10.06c0.08-9.36,0.12-19.62,0.12-30.77v-30.77v-10.06v-2.81
			v-1.05H943.85z"/>
		
			<linearGradient id="SVGID_00000122697369628212954000000015273737164730043804_" gradientUnits="userSpaceOnUse" x1="956.0168" y1="445.9224" x2="1025.8654" y2="445.9224">
			<stop  offset="0" style="stop-color:#007BFF"/>
			<stop  offset="0.2757" style="stop-color:#0080FF"/>
			<stop  offset="0.6243" style="stop-color:#0090FF"/>
			<stop  offset="1" style="stop-color:#00A9FF"/>
		</linearGradient>
		<path style="fill:url(#SVGID_00000122697369628212954000000015273737164730043804_);" d="M979.53,401.17l0.47,0.94
			c0.39,0.62,0.86,1.44,1.4,2.46c1.33,2.42,2.96,5.34,4.91,8.78l14.86,26.91l0.82,1.29c-0.08-4.29-0.14-8.73-0.18-13.34
			c-0.04-4.6-0.06-8.89-0.06-12.87c-0.08-3.98-0.12-7.37-0.12-10.18v-2.81v-0.94l23.4-0.23v0.94v2.81c0,2.81,0.04,6.2,0.12,10.18
			c0.08,9.28,0.16,19.5,0.23,30.65c0.16,11.16,0.27,21.37,0.35,30.65c0.08,3.98,0.12,7.37,0.12,10.18v2.81v0.94l-23.4,0.23v-0.12
			c-0.08,0-0.16-0.06-0.23-0.18c-0.08-0.12-0.16-0.29-0.23-0.53c-0.31-0.7-0.78-1.52-1.4-2.46c-1.33-2.5-2.96-5.46-4.91-8.89
			l-14.86-26.79l-1.17-2.11c0,9.52,0.04,18.56,0.12,27.14v10.06v2.92v0.94l-23.4,0.12v-1.05v-2.81v-10.06
			c-0.08-9.36-0.12-19.62-0.12-30.77c-0.08-11.15-0.12-21.41-0.12-30.77c0-3.9-0.04-7.25-0.12-10.06v-2.81v-1.05l23.4-0.12v0.12
			L979.53,401.17z"/>
		
			<linearGradient id="SVGID_00000072958778392707718530000015249312693315578007_" gradientUnits="userSpaceOnUse" x1="1036.0441" y1="446.8156" x2="1126.2511" y2="446.8156">
			<stop  offset="0" style="stop-color:#007BFF"/>
			<stop  offset="0.2757" style="stop-color:#0080FF"/>
			<stop  offset="0.6243" style="stop-color:#0090FF"/>
			<stop  offset="1" style="stop-color:#00A9FF"/>
		</linearGradient>
		<path style="fill:url(#SVGID_00000072958778392707718530000015249312693315578007_);" d="M1086,446.57l40.25-0.35l-0.12,12.17
			c-0.55,4.52-1.81,8.66-3.8,12.4c-1.99,3.74-4.41,6.81-7.25,9.18c-2.85,2.38-5.5,4.27-7.96,5.67s-4.97,2.57-7.55,3.51
			c-9.99,3.51-19.77,4.25-29.37,2.22c-9.99-2.03-18.06-6.86-24.22-14.51c-6.63-8.19-9.95-18.09-9.95-29.72
			c0-13.49,4.09-24.45,12.29-32.88c7.33-7.49,16.5-11.78,27.5-12.87c10.3-1.01,19.77,0.9,28.43,5.73c4.52,2.5,8.6,6.26,12.23,11.29
			s6.06,10.16,7.31,15.39l-24.1,0.35c-0.62-2.65-3.08-5.15-7.37-7.49c-2.96-1.71-7.68-2.26-14.16-1.64
			c-5.31,0.63-9.56,2.54-12.75,5.73c-3.67,3.9-5.5,9.36-5.5,16.38c0,6.01,1.48,10.92,4.45,14.74c2.5,2.96,6.08,5.07,10.76,6.32
			c9.59,2.42,17.55,0.66,23.87-5.26h-7.02c-1.72,0.08-3.2,0.12-4.45,0.12h-1.29h-0.47L1086,446.57z"/>
	</g>
	<g>
		<path class="st15" d="M1188.46,331.61L1188.46,331.61c-13.92-18.94-9.85-45.59,9.1-59.51v0c-18.94,13.92-45.59,9.85-59.51-9.1l0,0
			c13.92,18.94,9.85,45.59-9.1,59.51l0,0C1147.89,308.59,1174.54,312.66,1188.46,331.61z"/>
		<path class="st15" d="M1138.52,244L1138.52,244c-13.69-7.79-18.48-25.2-10.69-38.89v0c-7.79,13.69-25.2,18.48-38.89,10.69l0,0
			c13.69,7.79,18.48,25.2,10.69,38.89v0C1107.42,241,1124.83,236.22,1138.52,244z"/>
		<path class="st15" d="M1110.65,374.12l1.84-2.08c-24.88-21.98-27.23-59.98-5.25-84.86l-2.08-1.84
			c-21.98,24.88-59.98,27.23-84.86,5.25l-1.84,2.08c24.88,21.98,27.23,59.98,5.25,84.86l2.08,1.84
			C1047.78,354.49,1085.77,352.14,1110.65,374.12z"/>
		<path class="st15" d="M1054.6,234.47L1054.6,234.47c-12.25,8.35-28.95,5.19-37.3-7.06l-2.12,1.44c8.35,12.25,5.19,28.95-7.06,37.3
			l0,0c12.25-8.35,28.95-5.19,37.3,7.06l2.12-1.44C1039.19,259.51,1042.35,242.81,1054.6,234.47z"/>
	</g>
	
		<linearGradient id="SVGID_00000049199653292777088810000012422552245240639643_" gradientUnits="userSpaceOnUse" x1="117.2594" y1="320.9345" x2="747.9435" y2="320.9345">
		<stop  offset="0" style="stop-color:#007BFF"/>
		<stop  offset="0.838" style="stop-color:#00A9FF"/>
	</linearGradient>
	<path style="fill:url(#SVGID_00000049199653292777088810000012422552245240639643_);" d="M469.29,206.04
		c41.64,13.83,83.28,27.64,124.91,41.47c0.53,0.18,1.09,0.27,1.65,0.27c43.17,0.03,86.33,0.07,129.5,0.1c5.57,0,7.32-7.51,2.33-9.97
		C617.96,183.81,508.24,129.7,398.51,75.59c-3.51-1.73-7.61,0.84-7.58,4.74c0.79,143.59,1.58,287.18,2.36,430.77
		c0.02,2.92-2.34,5.29-5.26,5.29l0,0c-2.9,0-5.26-2.35-5.26-5.25c-0.16-143.44-0.32-286.87-0.47-430.31c0-4.03-4.35-6.55-7.85-4.57
		c-84.84,48.02-169.68,96.03-254.52,144.04c-4.74,2.68-2.78,9.91,2.66,9.83c11.5-0.15,23-0.31,34.5-0.46
		c2.9-0.04,5.29,2.29,5.33,5.19c1.21,93.85,2.42,187.69,3.62,281.53c0.2,15.09,0.39,30.17,0.58,45.25c0.04,2.88,2.38,5.19,5.26,5.19
		h570.8c2.9,0,5.26-2.35,5.26-5.26v-39.92c0-2.9-2.35-5.26-5.26-5.26H470.88c-2.88,0-5.23-2.32-5.26-5.2
		c-1.08-100.03-2.16-200.06-3.24-300.1C462.33,207.48,465.86,204.91,469.29,206.04z M294.92,516.39h-52.3
		c-2.91,0-5.27-2.36-5.26-5.27c0.23-91.71,0.46-183.42,0.68-275.14c0-1.98,1.12-3.78,2.88-4.68c17.21-8.74,34.41-17.48,51.62-26.22
		c3.5-1.78,7.64,0.76,7.64,4.69v301.36C300.17,514.04,297.82,516.39,294.92,516.39z"/>
	
		<linearGradient id="SVGID_00000023279442944290188100000006206240939365451912_" gradientUnits="userSpaceOnUse" x1="166.0435" y1="541.6124" x2="166.6935" y2="541.6124">
		<stop  offset="0" style="stop-color:#007BFF"/>
		<stop  offset="0.838" style="stop-color:#00A9FF"/>
	</linearGradient>
	<path style="fill:url(#SVGID_00000023279442944290188100000006206240939365451912_);" d="M166.69,566.83h-0.65v-50.44
		C166.26,533.21,166.48,550.02,166.69,566.83z"/>
</g>
</svg>
