<svg width="61" height="78" viewBox="0 0 61 78" fill="none" xmlns="http://www.w3.org/2000/svg">
<path d="M27.832 71.2329L61 38.025V44.809C61 46.6068 60.2885 48.3367 59.0011 49.5918L32.609 76.0157C29.9664 78.6615 25.6637 78.6615 23.0211 76.0157L1.98195 54.9512C-0.660656 52.3054 -0.660656 47.9975 1.98195 45.3517L27.832 71.2329Z" fill="#F7F0FF"/>
<path d="M32.609 59.0552C29.9664 61.701 25.6637 61.701 23.0211 59.0552L1.98195 37.9907C-0.660656 35.3449 -0.660656 31.0371 1.98195 28.3913L28.3741 1.96738C29.6615 0.712326 31.3893 0 33.1849 0H54.2241C57.9508 0 61 3.05283 61 6.78406V27.8486C61 29.6463 60.2885 31.3763 59.0011 32.6313L32.609 59.0552ZM46.6012 10.1761C44.2635 10.1761 42.3663 12.0756 42.3663 14.4161C42.3663 16.7566 44.2635 18.6562 46.6012 18.6562C48.9389 18.6562 50.8362 16.7566 50.8362 14.4161C50.8362 12.0756 48.9389 10.1761 46.6012 10.1761Z" fill="#F7F0FF"/>
</svg>
